<svg width="55" height="62" viewBox="0 0 55 62" fill="none" xmlns="http://www.w3.org/2000/svg">
<path d="M31.6535 0.0101594C18.4585 -0.368667 7.60011 9.8941 6.94723 22.8775L0.349728 31.6939C-0.509322 32.8303 0.315366 34.449 1.72421 34.449H6.8785V44.7806C6.8785 48.5689 9.97108 51.6684 13.7509 51.6684H17.1871V58.5561C17.1871 60.4503 18.7334 62 20.6233 62H37.8043C39.6942 62 41.2405 60.4503 41.2405 58.5561V45.8826C49.6248 41.8877 55.3289 33.2092 54.9853 23.2219C54.5042 10.7551 44.0582 0.388986 31.6535 0.0101594ZM41.2405 24.1173C41.2405 24.565 41.2061 25.0127 41.1718 25.4604L44.0238 27.7334C44.2987 27.94 44.3674 28.2844 44.1956 28.5944L41.4467 33.3814C41.2748 33.6913 40.8969 33.7946 40.622 33.6913L37.2201 32.3138C36.4985 32.8648 35.7426 33.3125 34.9179 33.6569L34.3681 37.3074C34.3337 37.6518 34.0245 37.8928 33.6809 37.8928H28.1829C27.8393 37.8928 27.5644 37.6518 27.4957 37.3074L26.9803 33.6569C26.1212 33.3125 25.3653 32.8648 24.6437 32.3138L21.2418 33.6913C20.9326 33.7946 20.5546 33.6913 20.3828 33.3814L17.6338 28.5944C17.462 28.3189 17.5307 27.94 17.8056 27.7334L20.692 25.4604C20.6577 25.0127 20.6233 24.565 20.6233 24.1173C20.6233 23.6696 20.692 23.1875 20.7607 22.7742L17.84 20.5012C17.5651 20.2946 17.4964 19.9502 17.6682 19.6058L20.4171 14.8533C20.5889 14.5433 20.9326 14.44 21.2418 14.5433L24.678 15.9209C25.3653 15.4043 26.1556 14.9222 26.9803 14.5778L27.4957 10.9273C27.5644 10.5829 27.8393 10.3418 28.1829 10.3418H33.6809C34.0245 10.3418 34.2994 10.5829 34.3681 10.9273L34.8835 14.5778C35.7082 14.9222 36.4642 15.3699 37.1858 15.9209L40.622 14.5433C40.9312 14.44 41.3092 14.5433 41.4467 14.8533L44.1956 19.6058C44.3674 19.9158 44.2987 20.2946 44.0238 20.5012L41.103 22.7742C41.2061 23.1875 41.2405 23.6352 41.2405 24.1173Z" fill="#FFC300"/>
</svg>
