<svg width="71" height="45" viewBox="0 0 71 45" fill="none" xmlns="http://www.w3.org/2000/svg">
<path d="M48.4091 19.2857C53.7664 19.2857 58.0586 14.9786 58.0586 9.64286C58.0586 4.30714 53.7664 0 48.4091 0C43.0518 0 38.7273 4.30714 38.7273 9.64286C38.7273 14.9786 43.0518 19.2857 48.4091 19.2857ZM22.5909 19.2857C27.9482 19.2857 32.2405 14.9786 32.2405 9.64286C32.2405 4.30714 27.9482 0 22.5909 0C17.2336 0 12.9091 4.30714 12.9091 9.64286C12.9091 14.9786 17.2336 19.2857 22.5909 19.2857ZM22.5909 25.7143C15.0714 25.7143 0 29.475 0 36.9643V41.7857C0 43.5536 1.45227 45 3.22727 45H41.9545C43.7295 45 45.1818 43.5536 45.1818 41.7857V36.9643C45.1818 29.475 30.1105 25.7143 22.5909 25.7143ZM48.4091 25.7143C47.4732 25.7143 46.4082 25.7786 45.2786 25.875C45.3432 25.9071 45.3755 25.9714 45.4077 26.0036C49.0868 28.6714 51.6364 32.2393 51.6364 36.9643V41.7857C51.6364 42.9107 51.4105 44.0036 51.0555 45H67.7727C69.5477 45 71 43.5536 71 41.7857V36.9643C71 29.475 55.9286 25.7143 48.4091 25.7143Z" fill="#FFC300"/>
</svg>
