<svg width="35" height="35" viewBox="0 0 35 35" fill="none" xmlns="http://www.w3.org/2000/svg">
<g clip-path="url(#clip0_61_208)">
<path d="M18.9585 12.4979C17.8064 12.4979 16.873 13.4313 16.873 14.5833C16.873 15.7354 17.8064 16.6688 18.9585 16.6688C20.1105 16.6688 21.0439 15.7354 21.0439 14.5833C21.0439 13.4313 20.1105 12.4979 18.9585 12.4979Z" fill="#003566"/>
<path d="M19.2647 4.37503C13.6647 4.21461 9.05632 8.56045 8.77924 14.0584L5.97924 17.7917C5.61465 18.2729 5.96465 18.9584 6.56257 18.9584H8.75007V23.3334C8.75007 24.9375 10.0626 26.25 11.6667 26.25H13.1251V29.1667C13.1251 29.9688 13.7813 30.625 14.5834 30.625H21.8751C22.6772 30.625 23.3334 29.9688 23.3334 29.1667V23.8C26.8917 22.1084 29.3126 18.4334 29.1667 14.2042C28.9626 8.92503 24.5292 4.53545 19.2647 4.37503ZM23.3334 14.5834C23.3334 14.7729 23.3188 14.9625 23.3042 15.1521L24.5147 16.1146C24.6313 16.2021 24.6605 16.3479 24.5876 16.4792L23.4209 18.5063C23.348 18.6375 23.1876 18.6813 23.0709 18.6375L21.6272 18.0542C21.3209 18.2875 21.0001 18.4771 20.6501 18.6229L20.4167 20.1688C20.4022 20.3146 20.2709 20.4167 20.1251 20.4167H17.7917C17.6459 20.4167 17.5292 20.3146 17.5001 20.1688L17.2813 18.6229C16.9167 18.4771 16.5959 18.2875 16.2897 18.0542L14.8459 18.6375C14.7147 18.6813 14.5542 18.6375 14.4813 18.5063L13.3147 16.4792C13.2417 16.3625 13.2709 16.2021 13.3876 16.1146L14.6126 15.1521C14.598 14.9625 14.5834 14.7729 14.5834 14.5834C14.5834 14.3938 14.6126 14.1896 14.6417 14.0146L13.4022 13.0521C13.2855 12.9646 13.2563 12.8188 13.3292 12.6729L14.4959 10.6604C14.5688 10.5292 14.7147 10.4854 14.8459 10.5292L16.3042 11.1125C16.5959 10.8938 16.9313 10.6896 17.2813 10.5438L17.5001 8.99795C17.5292 8.85211 17.6459 8.75003 17.7917 8.75003H20.1251C20.2709 8.75003 20.3876 8.85211 20.4167 8.99795L20.6355 10.5438C20.9855 10.6896 21.3063 10.8792 21.6126 11.1125L23.0709 10.5292C23.2022 10.4854 23.3626 10.5292 23.4209 10.6604L24.5876 12.6729C24.6605 12.8042 24.6313 12.9646 24.5147 13.0521L23.2751 14.0146C23.3188 14.1896 23.3334 14.3792 23.3334 14.5834Z" fill="#003566"/>
</g>
<defs>
<clipPath id="clip0_61_208">
<rect width="35" height="35" fill="white"/>
</clipPath>
</defs>
</svg>
