<svg width="47" height="47" viewBox="0 0 47 47" fill="none" xmlns="http://www.w3.org/2000/svg">
<path d="M19.2215 23.5C19.2215 21.1376 21.1372 19.222 23.501 19.222C25.8648 19.222 27.7815 21.1376 27.7815 23.5C27.7815 25.8624 25.8648 27.7779 23.501 27.7779C21.1372 27.7779 19.2215 25.8624 19.2215 23.5ZM16.9075 23.5C16.9075 27.1394 19.8594 30.0895 23.501 30.0895C27.1425 30.0895 30.0944 27.1394 30.0944 23.5C30.0944 19.8606 27.1425 16.9105 23.501 16.9105C19.8594 16.9105 16.9075 19.8606 16.9075 23.5ZM28.8146 16.6492C28.8145 16.9538 28.9047 17.2515 29.0739 17.5048C29.2431 17.7581 29.4837 17.9556 29.7652 18.0723C30.0467 18.1889 30.3565 18.2196 30.6555 18.1603C30.9544 18.101 31.229 17.9544 31.4446 17.7391C31.6602 17.5239 31.807 17.2495 31.8666 16.9508C31.9262 16.6521 31.8958 16.3425 31.7793 16.0611C31.6628 15.7796 31.4654 15.539 31.212 15.3697C30.9587 15.2004 30.6608 15.11 30.3561 15.1099H30.3555C29.947 15.11 29.5552 15.2723 29.2663 15.5609C28.9774 15.8495 28.8149 16.2409 28.8146 16.6492ZM18.3134 33.9456C17.0615 33.8886 16.381 33.6802 15.9288 33.5042C15.3293 33.2709 14.9016 32.9931 14.4519 32.5443C14.0021 32.0954 13.7237 31.6683 13.4914 31.0692C13.3151 30.6175 13.1066 29.9372 13.0497 28.6861C12.9874 27.3334 12.975 26.9271 12.975 23.5001C12.975 20.0731 12.9884 19.6679 13.0497 18.3141C13.1067 17.0629 13.3168 16.384 13.4914 15.9309C13.7248 15.3318 14.0027 14.9043 14.4519 14.4549C14.901 14.0054 15.3283 13.7272 15.9288 13.495C16.3808 13.3188 17.0615 13.1104 18.3134 13.0535C19.6669 12.9913 20.0735 12.9789 23.501 12.9789C26.9285 12.9789 27.3355 12.9923 28.6901 13.0535C29.942 13.1105 30.6213 13.3204 31.0746 13.495C31.6741 13.7272 32.1019 14.006 32.5516 14.4549C33.0013 14.9037 33.2787 15.3318 33.5121 15.9309C33.6884 16.3827 33.8969 17.0629 33.9538 18.3141C34.016 19.6679 34.0285 20.0731 34.0285 23.5001C34.0285 26.9271 34.016 27.3323 33.9538 28.6861C33.8968 29.9372 33.6872 30.6173 33.5121 31.0692C33.2787 31.6683 33.0007 32.0958 32.5516 32.5443C32.1025 32.9927 31.6741 33.2709 31.0746 33.5042C30.6226 33.6803 29.942 33.8887 28.6901 33.9456C27.3366 34.0078 26.93 34.0203 23.501 34.0203C20.0719 34.0203 19.6665 34.0078 18.3134 33.9456ZM18.2071 10.7448C16.8401 10.807 15.906 11.0237 15.0903 11.3409C14.2455 11.6685 13.5303 12.108 12.8157 12.8211C12.101 13.5342 11.6624 14.25 11.3346 15.0943C11.0172 15.9101 10.8004 16.8431 10.7382 18.2092C10.6749 19.5775 10.6604 20.015 10.6604 23.5C10.6604 26.985 10.6749 27.4224 10.7382 28.7907C10.8004 30.1569 11.0172 31.0898 11.3346 31.9056C11.6624 32.7494 12.1011 33.4661 12.8157 34.1789C13.5302 34.8917 14.2455 35.3305 15.0903 35.6591C15.9076 35.9763 16.8401 36.1929 18.2071 36.2551C19.5769 36.3173 20.0139 36.3328 23.501 36.3328C26.988 36.3328 27.4258 36.3184 28.7949 36.2551C30.1619 36.1929 31.0954 35.9763 31.9116 35.6591C32.7559 35.3305 33.4716 34.892 34.1863 34.1789C34.9009 33.4658 35.3386 32.7494 35.6673 31.9056C35.9848 31.0898 36.2025 30.1568 36.2638 28.7907C36.326 27.4214 36.3405 26.985 36.3405 23.5C36.3405 20.015 36.326 19.5775 36.2638 18.2092C36.2015 16.843 35.9848 15.9096 35.6673 15.0943C35.3386 14.2506 34.8998 13.5353 34.1863 12.8211C33.4727 12.1069 32.7559 11.6685 31.9127 11.3409C31.0954 11.0237 30.1618 10.806 28.7959 10.7448C27.4268 10.6826 26.9891 10.6671 23.502 10.6671C20.0149 10.6671 19.5769 10.6816 18.2071 10.7448Z" fill="url(#paint0_radial_66_576)"/>
<path d="M19.2215 23.5C19.2215 21.1376 21.1372 19.222 23.501 19.222C25.8648 19.222 27.7815 21.1376 27.7815 23.5C27.7815 25.8624 25.8648 27.7779 23.501 27.7779C21.1372 27.7779 19.2215 25.8624 19.2215 23.5ZM16.9075 23.5C16.9075 27.1394 19.8594 30.0895 23.501 30.0895C27.1425 30.0895 30.0944 27.1394 30.0944 23.5C30.0944 19.8606 27.1425 16.9105 23.501 16.9105C19.8594 16.9105 16.9075 19.8606 16.9075 23.5ZM28.8146 16.6492C28.8145 16.9538 28.9047 17.2515 29.0739 17.5048C29.2431 17.7581 29.4837 17.9556 29.7652 18.0723C30.0467 18.1889 30.3565 18.2196 30.6555 18.1603C30.9544 18.101 31.229 17.9544 31.4446 17.7391C31.6602 17.5239 31.807 17.2495 31.8666 16.9508C31.9262 16.6521 31.8958 16.3425 31.7793 16.0611C31.6628 15.7796 31.4654 15.539 31.212 15.3697C30.9587 15.2004 30.6608 15.11 30.3561 15.1099H30.3555C29.947 15.11 29.5552 15.2723 29.2663 15.5609C28.9774 15.8495 28.8149 16.2409 28.8146 16.6492ZM18.3134 33.9456C17.0615 33.8886 16.381 33.6802 15.9288 33.5042C15.3293 33.2709 14.9016 32.9931 14.4519 32.5443C14.0021 32.0954 13.7237 31.6683 13.4914 31.0692C13.3151 30.6175 13.1066 29.9372 13.0497 28.6861C12.9874 27.3334 12.975 26.9271 12.975 23.5001C12.975 20.0731 12.9884 19.6679 13.0497 18.3141C13.1067 17.0629 13.3168 16.384 13.4914 15.9309C13.7248 15.3318 14.0027 14.9043 14.4519 14.4549C14.901 14.0054 15.3283 13.7272 15.9288 13.495C16.3808 13.3188 17.0615 13.1104 18.3134 13.0535C19.6669 12.9913 20.0735 12.9789 23.501 12.9789C26.9285 12.9789 27.3355 12.9923 28.6901 13.0535C29.942 13.1105 30.6213 13.3204 31.0746 13.495C31.6741 13.7272 32.1019 14.006 32.5516 14.4549C33.0013 14.9037 33.2787 15.3318 33.5121 15.9309C33.6884 16.3827 33.8969 17.0629 33.9538 18.3141C34.016 19.6679 34.0285 20.0731 34.0285 23.5001C34.0285 26.9271 34.016 27.3323 33.9538 28.6861C33.8968 29.9372 33.6872 30.6173 33.5121 31.0692C33.2787 31.6683 33.0007 32.0958 32.5516 32.5443C32.1025 32.9927 31.6741 33.2709 31.0746 33.5042C30.6226 33.6803 29.942 33.8887 28.6901 33.9456C27.3366 34.0078 26.93 34.0203 23.501 34.0203C20.0719 34.0203 19.6665 34.0078 18.3134 33.9456ZM18.2071 10.7448C16.8401 10.807 15.906 11.0237 15.0903 11.3409C14.2455 11.6685 13.5303 12.108 12.8157 12.8211C12.101 13.5342 11.6624 14.25 11.3346 15.0943C11.0172 15.9101 10.8004 16.8431 10.7382 18.2092C10.6749 19.5775 10.6604 20.015 10.6604 23.5C10.6604 26.985 10.6749 27.4224 10.7382 28.7907C10.8004 30.1569 11.0172 31.0898 11.3346 31.9056C11.6624 32.7494 12.1011 33.4661 12.8157 34.1789C13.5302 34.8917 14.2455 35.3305 15.0903 35.6591C15.9076 35.9763 16.8401 36.1929 18.2071 36.2551C19.5769 36.3173 20.0139 36.3328 23.501 36.3328C26.988 36.3328 27.4258 36.3184 28.7949 36.2551C30.1619 36.1929 31.0954 35.9763 31.9116 35.6591C32.7559 35.3305 33.4716 34.892 34.1863 34.1789C34.9009 33.4658 35.3386 32.7494 35.6673 31.9056C35.9848 31.0898 36.2025 30.1568 36.2638 28.7907C36.326 27.4214 36.3405 26.985 36.3405 23.5C36.3405 20.015 36.326 19.5775 36.2638 18.2092C36.2015 16.843 35.9848 15.9096 35.6673 15.0943C35.3386 14.2506 34.8998 13.5353 34.1863 12.8211C33.4727 12.1069 32.7559 11.6685 31.9127 11.3409C31.0954 11.0237 30.1618 10.806 28.7959 10.7448C27.4268 10.6826 26.9891 10.6671 23.502 10.6671C20.0149 10.6671 19.5769 10.6816 18.2071 10.7448Z" fill="url(#paint1_radial_66_576)"/>
<defs>
<radialGradient id="paint0_radial_66_576" cx="0" cy="0" r="1" gradientUnits="userSpaceOnUse" gradientTransform="translate(14.0723 36.4541) scale(33.5245 33.5044)">
<stop offset="0.09" stop-color="#FA8F21"/>
<stop offset="0.78" stop-color="#D82D7E"/>
</radialGradient>
<radialGradient id="paint1_radial_66_576" cx="0" cy="0" r="1" gradientUnits="userSpaceOnUse" gradientTransform="translate(26.2349 37.6039) scale(26.422 26.4061)">
<stop offset="0.64" stop-color="#8C3AAA" stop-opacity="0"/>
<stop offset="1" stop-color="#8C3AAA"/>
</radialGradient>
</defs>
</svg>
