<svg width="47" height="47" viewBox="0 0 47 47" fill="none" xmlns="http://www.w3.org/2000/svg">
<path d="M35.3884 15.9875C34.6123 16.3215 33.7965 16.554 32.961 16.6794C33.3516 16.6125 33.9263 15.9094 34.1551 15.6248C34.5027 15.1955 34.7676 14.7054 34.9364 14.1795C34.9364 14.1404 34.9754 14.0846 34.9364 14.0567C34.9167 14.046 34.8946 14.0404 34.8722 14.0404C34.8498 14.0404 34.8277 14.046 34.808 14.0567C33.9008 14.548 32.9352 14.923 31.9342 15.1728C31.8993 15.1834 31.8622 15.1844 31.8268 15.1755C31.7914 15.1667 31.7591 15.1484 31.7333 15.1225C31.6554 15.0298 31.5715 14.9422 31.4822 14.8603C31.0739 14.4945 30.6107 14.1951 30.1095 13.973C29.4329 13.6955 28.7021 13.5752 27.9723 13.6215C27.2641 13.6662 26.5727 13.8561 25.9411 14.1795C25.3191 14.5204 24.7724 14.9835 24.334 15.5411C23.8727 16.1149 23.5398 16.7809 23.3574 17.4941C23.2071 18.1726 23.19 18.8738 23.3072 19.5588C23.3072 19.676 23.3072 19.6927 23.2068 19.676C19.2281 19.0901 15.9636 17.6783 13.2963 14.6482C13.1791 14.5143 13.1177 14.5143 13.0229 14.6482C11.8622 16.4116 12.4258 19.2017 13.8766 20.58C14.0719 20.7641 14.2728 20.9427 14.4849 21.1101C13.8197 21.0629 13.1707 20.8826 12.5765 20.58C12.4648 20.5075 12.4035 20.5465 12.3979 20.6804C12.3821 20.8661 12.3821 21.0528 12.3979 21.2385C12.5143 22.1283 12.865 22.9712 13.414 23.6811C13.9631 24.3909 14.6908 24.9422 15.5228 25.2785C15.7256 25.3654 15.937 25.4309 16.1534 25.4738C15.5375 25.5951 14.906 25.6139 14.284 25.5296C14.1501 25.5017 14.0998 25.5743 14.1501 25.7026C14.9704 27.9347 16.7505 28.6155 18.0562 28.995C18.2348 29.0229 18.4134 29.0229 18.6142 29.0675C18.6142 29.0675 18.6142 29.0675 18.5808 29.101C18.1957 29.8041 16.6388 30.2784 15.9246 30.5239C14.6209 30.9922 13.2308 31.1712 11.851 31.0485C11.6334 31.015 11.5832 31.0206 11.5274 31.0485C11.4716 31.0764 11.5274 31.1378 11.5888 31.1936C11.8678 31.3777 12.1468 31.5395 12.4369 31.6958C13.3008 32.167 14.214 32.5412 15.1601 32.8118C20.0595 34.1622 25.5728 33.169 29.2501 29.5139C32.1407 26.6457 33.1563 22.6893 33.1563 18.7274C33.1563 18.5767 33.3404 18.4874 33.4465 18.4093C34.1777 17.8395 34.8225 17.1666 35.3605 16.4116C35.4536 16.299 35.5014 16.1557 35.4944 16.0098C35.4944 15.9261 35.4944 15.9428 35.3884 15.9875Z" fill="#33CCFF"/>
</svg>
