<svg width="89" height="108" viewBox="0 0 89 108" fill="none" xmlns="http://www.w3.org/2000/svg">
<path d="M88.503 54C88.503 68.9117 83.5622 82.4117 75.5741 92.1838C67.586 101.956 56.5505 108 44.361 108C32.1715 108 21.136 101.956 13.1479 92.1838C5.15975 82.4117 0.218994 68.9117 0.218994 54C0.218994 39.0883 5.15975 25.5883 13.1479 15.8162C21.136 6.04416 32.1715 0 44.361 0C56.5505 0 67.586 6.04416 75.5741 15.8162C83.5622 25.5883 88.503 39.0883 88.503 54Z" fill="#E5E5E5"/>
<path d="M88.003 54C88.003 68.8033 83.0978 82.1898 75.187 91.8673C67.277 101.544 56.3757 107.5 44.361 107.5C32.3462 107.5 21.445 101.544 13.535 91.8673C5.62419 82.1898 0.718994 68.8033 0.718994 54C0.718994 39.1967 5.62419 25.8102 13.535 16.1327C21.445 6.45621 32.3462 0.5 44.361 0.5C56.3757 0.5 67.277 6.45621 75.187 16.1327C83.0978 25.8102 88.003 39.1967 88.003 54Z" stroke="black" stroke-opacity="0.3"/>
</svg>
