<svg width="89" height="108" viewBox="0 0 89 108" fill="none" xmlns="http://www.w3.org/2000/svg">
<path d="M88.8864 54C88.8864 68.9117 83.9579 82.4117 75.9896 92.1838C68.0213 101.956 57.0132 108 44.854 108C32.6948 108 21.6866 101.956 13.7183 92.1838C5.75003 82.4117 0.821533 68.9117 0.821533 54C0.821533 39.0883 5.75003 25.5883 13.7183 15.8162C21.6866 6.04416 32.6948 0 44.854 0C57.0132 0 68.0213 6.04416 75.9896 15.8162C83.9579 25.5883 88.8864 39.0883 88.8864 54Z" fill="#E5E5E5"/>
<path d="M88.3864 54C88.3864 68.8037 83.4933 82.1903 75.6021 91.8678C67.7118 101.544 56.838 107.5 44.854 107.5C32.87 107.5 21.9962 101.544 14.1058 91.8678C6.21467 82.1903 1.32153 68.8037 1.32153 54C1.32153 39.1963 6.21467 25.8097 14.1058 16.1322C21.9962 6.45574 32.87 0.5 44.854 0.5C56.838 0.5 67.7118 6.45574 75.6021 16.1322C83.4933 25.8097 88.3864 39.1963 88.3864 54Z" stroke="black" stroke-opacity="0.3"/>
</svg>
