<svg width="89" height="108" viewBox="0 0 89 108" fill="none" xmlns="http://www.w3.org/2000/svg">
<path d="M88.1537 54C88.1537 68.9117 83.2597 82.4117 75.3471 92.1838C67.4345 101.956 56.5033 108 44.429 108C32.3548 108 21.4236 101.956 13.511 92.1838C5.5984 82.4117 0.704346 68.9117 0.704346 54C0.704346 39.0883 5.5984 25.5883 13.511 15.8162C21.4236 6.04416 32.3548 0 44.429 0C56.5033 0 67.4345 6.04416 75.3471 15.8162C83.2597 25.5883 88.1537 39.0883 88.1537 54Z" fill="#E5E5E5"/>
<path d="M87.6537 54C87.6537 68.8046 82.7945 82.1917 74.9585 91.8691C67.1233 101.546 56.3266 107.5 44.429 107.5C32.5314 107.5 21.7348 101.546 13.8996 91.8691C6.06361 82.1917 1.20435 68.8046 1.20435 54C1.20435 39.1954 6.06361 25.8083 13.8996 16.1309C21.7348 6.45442 32.5314 0.5 44.429 0.5C56.3266 0.5 67.1233 6.45442 74.9585 16.1309C82.7945 25.8083 87.6537 39.1954 87.6537 54Z" stroke="black" stroke-opacity="0.3"/>
</svg>
