<svg width="34" height="34" viewBox="0 0 34 34" fill="none" xmlns="http://www.w3.org/2000/svg">
<g clip-path="url(#clip0_61_205)">
<path d="M22.6667 15.5834C25.0184 15.5834 26.9026 13.685 26.9026 11.3334C26.9026 8.98171 25.0184 7.08337 22.6667 7.08337C20.3151 7.08337 18.4167 8.98171 18.4167 11.3334C18.4167 13.685 20.3151 15.5834 22.6667 15.5834ZM11.3334 15.5834C13.6851 15.5834 15.5692 13.685 15.5692 11.3334C15.5692 8.98171 13.6851 7.08337 11.3334 7.08337C8.98175 7.08337 7.08341 8.98171 7.08341 11.3334C7.08341 13.685 8.98175 15.5834 11.3334 15.5834ZM11.3334 18.4167C8.03258 18.4167 1.41675 20.0742 1.41675 23.375V25.5C1.41675 26.2792 2.05425 26.9167 2.83341 26.9167H19.8334C20.6126 26.9167 21.2501 26.2792 21.2501 25.5V23.375C21.2501 20.0742 14.6342 18.4167 11.3334 18.4167ZM22.6667 18.4167C22.2559 18.4167 21.7884 18.445 21.2926 18.4875C21.3209 18.5017 21.3351 18.53 21.3492 18.5442C22.9642 19.72 24.0834 21.2925 24.0834 23.375V25.5C24.0834 25.9959 23.9842 26.4775 23.8284 26.9167H31.1667C31.9459 26.9167 32.5834 26.2792 32.5834 25.5V23.375C32.5834 20.0742 25.9676 18.4167 22.6667 18.4167Z" fill="#003566"/>
</g>
<defs>
<clipPath id="clip0_61_205">
<rect width="34" height="34" fill="white"/>
</clipPath>
</defs>
</svg>
