<svg width="47" height="47" viewBox="0 0 47 47" fill="none" xmlns="http://www.w3.org/2000/svg">
<path d="M19.2215 23.4999C19.2215 21.1375 21.1372 19.2219 23.501 19.2219C25.8648 19.2219 27.7815 21.1375 27.7815 23.4999C27.7815 25.8622 25.8648 27.7778 23.501 27.7778C21.1372 27.7778 19.2215 25.8622 19.2215 23.4999ZM16.9075 23.4999C16.9075 27.1393 19.8594 30.0894 23.501 30.0894C27.1425 30.0894 30.0944 27.1393 30.0944 23.4999C30.0944 19.8605 27.1425 16.9103 23.501 16.9103C19.8594 16.9103 16.9075 19.8605 16.9075 23.4999ZM28.8146 16.6491C28.8145 16.9536 28.9047 17.2514 29.0739 17.5047C29.2431 17.758 29.4837 17.9555 29.7652 18.0722C30.0467 18.1888 30.3565 18.2194 30.6555 18.1601C30.9544 18.1008 31.229 17.9543 31.4446 17.739C31.6602 17.5237 31.807 17.2494 31.8666 16.9507C31.9262 16.652 31.8958 16.3424 31.7793 16.0609C31.6628 15.7795 31.4654 15.5389 31.212 15.3696C30.9587 15.2003 30.6608 15.1099 30.3561 15.1097H30.3555C29.947 15.1099 29.5552 15.2721 29.2663 15.5608C28.9774 15.8494 28.8149 16.2408 28.8146 16.6491ZM18.3134 33.9455C17.0615 33.8885 16.381 33.6801 15.9288 33.504C15.3293 33.2708 14.9016 32.993 14.4519 32.5441C14.0021 32.0953 13.7237 31.6682 13.4914 31.0691C13.3151 30.6174 13.1066 29.9371 13.0497 28.686C12.9874 27.3333 12.975 26.9269 12.975 23.5C12.975 20.073 12.9884 19.6678 13.0497 18.3139C13.1067 17.0628 13.3168 16.3839 13.4914 15.9308C13.7248 15.3317 14.0027 14.9042 14.4519 14.4547C14.901 14.0053 15.3283 13.7271 15.9288 13.4948C16.3808 13.3187 17.0615 13.1103 18.3134 13.0534C19.6669 12.9912 20.0735 12.9788 23.501 12.9788C26.9285 12.9788 27.3355 12.9922 28.6901 13.0534C29.942 13.1104 30.6213 13.3203 31.0746 13.4948C31.6741 13.7271 32.1019 14.0059 32.5516 14.4547C33.0013 14.9036 33.2787 15.3317 33.5121 15.9308C33.6884 16.3825 33.8969 17.0628 33.9538 18.3139C34.016 19.6678 34.0285 20.073 34.0285 23.5C34.0285 26.9269 34.016 27.3322 33.9538 28.686C33.8968 29.9371 33.6872 30.6172 33.5121 31.0691C33.2787 31.6682 33.0007 32.0957 32.5516 32.5441C32.1025 32.9926 31.6741 33.2708 31.0746 33.504C30.6226 33.6802 29.942 33.8886 28.6901 33.9455C27.3366 34.0077 26.93 34.0201 23.501 34.0201C20.0719 34.0201 19.6665 34.0077 18.3134 33.9455ZM18.2071 10.7447C16.8401 10.8069 15.906 11.0235 15.0903 11.3408C14.2455 11.6684 13.5303 12.1079 12.8157 12.821C12.101 13.5341 11.6624 14.2499 11.3346 15.0942C11.0172 15.91 10.8004 16.843 10.7382 18.2091C10.6749 19.5774 10.6604 20.0149 10.6604 23.4999C10.6604 26.9848 10.6749 27.4223 10.7382 28.7906C10.8004 30.1568 11.0172 31.0897 11.3346 31.9055C11.6624 32.7493 12.1011 33.466 12.8157 34.1787C13.5302 34.8915 14.2455 35.3304 15.0903 35.6589C15.9076 35.9762 16.8401 36.1928 18.2071 36.255C19.5769 36.3172 20.0139 36.3327 23.501 36.3327C26.988 36.3327 27.4258 36.3182 28.7949 36.255C30.1619 36.1928 31.0954 35.9762 31.9116 35.6589C32.7559 35.3304 33.4716 34.8918 34.1863 34.1787C34.9009 33.4656 35.3386 32.7493 35.6673 31.9055C35.9848 31.0897 36.2025 30.1567 36.2638 28.7906C36.326 27.4213 36.3405 26.9848 36.3405 23.4999C36.3405 20.0149 36.326 19.5774 36.2638 18.2091C36.2015 16.8429 35.9848 15.9095 35.6673 15.0942C35.3386 14.2504 34.8998 13.5352 34.1863 12.821C33.4727 12.1067 32.7559 11.6684 31.9127 11.3408C31.0954 11.0235 30.1618 10.8059 28.7959 10.7447C27.4268 10.6825 26.9891 10.667 23.502 10.667C20.0149 10.667 19.5769 10.6815 18.2071 10.7447Z" fill="url(#paint0_radial_62_260)"/>
<path d="M19.2215 23.4999C19.2215 21.1375 21.1372 19.2219 23.501 19.2219C25.8648 19.2219 27.7815 21.1375 27.7815 23.4999C27.7815 25.8622 25.8648 27.7778 23.501 27.7778C21.1372 27.7778 19.2215 25.8622 19.2215 23.4999ZM16.9075 23.4999C16.9075 27.1393 19.8594 30.0894 23.501 30.0894C27.1425 30.0894 30.0944 27.1393 30.0944 23.4999C30.0944 19.8605 27.1425 16.9103 23.501 16.9103C19.8594 16.9103 16.9075 19.8605 16.9075 23.4999ZM28.8146 16.6491C28.8145 16.9536 28.9047 17.2514 29.0739 17.5047C29.2431 17.758 29.4837 17.9555 29.7652 18.0722C30.0467 18.1888 30.3565 18.2194 30.6555 18.1601C30.9544 18.1008 31.229 17.9543 31.4446 17.739C31.6602 17.5237 31.807 17.2494 31.8666 16.9507C31.9262 16.652 31.8958 16.3424 31.7793 16.0609C31.6628 15.7795 31.4654 15.5389 31.212 15.3696C30.9587 15.2003 30.6608 15.1099 30.3561 15.1097H30.3555C29.947 15.1099 29.5552 15.2721 29.2663 15.5608C28.9774 15.8494 28.8149 16.2408 28.8146 16.6491ZM18.3134 33.9455C17.0615 33.8885 16.381 33.6801 15.9288 33.504C15.3293 33.2708 14.9016 32.993 14.4519 32.5441C14.0021 32.0953 13.7237 31.6682 13.4914 31.0691C13.3151 30.6174 13.1066 29.9371 13.0497 28.686C12.9874 27.3333 12.975 26.9269 12.975 23.5C12.975 20.073 12.9884 19.6678 13.0497 18.3139C13.1067 17.0628 13.3168 16.3839 13.4914 15.9308C13.7248 15.3317 14.0027 14.9042 14.4519 14.4547C14.901 14.0053 15.3283 13.7271 15.9288 13.4948C16.3808 13.3187 17.0615 13.1103 18.3134 13.0534C19.6669 12.9912 20.0735 12.9788 23.501 12.9788C26.9285 12.9788 27.3355 12.9922 28.6901 13.0534C29.942 13.1104 30.6213 13.3203 31.0746 13.4948C31.6741 13.7271 32.1019 14.0059 32.5516 14.4547C33.0013 14.9036 33.2787 15.3317 33.5121 15.9308C33.6884 16.3825 33.8969 17.0628 33.9538 18.3139C34.016 19.6678 34.0285 20.073 34.0285 23.5C34.0285 26.9269 34.016 27.3322 33.9538 28.686C33.8968 29.9371 33.6872 30.6172 33.5121 31.0691C33.2787 31.6682 33.0007 32.0957 32.5516 32.5441C32.1025 32.9926 31.6741 33.2708 31.0746 33.504C30.6226 33.6802 29.942 33.8886 28.6901 33.9455C27.3366 34.0077 26.93 34.0201 23.501 34.0201C20.0719 34.0201 19.6665 34.0077 18.3134 33.9455ZM18.2071 10.7447C16.8401 10.8069 15.906 11.0235 15.0903 11.3408C14.2455 11.6684 13.5303 12.1079 12.8157 12.821C12.101 13.5341 11.6624 14.2499 11.3346 15.0942C11.0172 15.91 10.8004 16.843 10.7382 18.2091C10.6749 19.5774 10.6604 20.0149 10.6604 23.4999C10.6604 26.9848 10.6749 27.4223 10.7382 28.7906C10.8004 30.1568 11.0172 31.0897 11.3346 31.9055C11.6624 32.7493 12.1011 33.466 12.8157 34.1787C13.5302 34.8915 14.2455 35.3304 15.0903 35.6589C15.9076 35.9762 16.8401 36.1928 18.2071 36.255C19.5769 36.3172 20.0139 36.3327 23.501 36.3327C26.988 36.3327 27.4258 36.3182 28.7949 36.255C30.1619 36.1928 31.0954 35.9762 31.9116 35.6589C32.7559 35.3304 33.4716 34.8918 34.1863 34.1787C34.9009 33.4656 35.3386 32.7493 35.6673 31.9055C35.9848 31.0897 36.2025 30.1567 36.2638 28.7906C36.326 27.4213 36.3405 26.9848 36.3405 23.4999C36.3405 20.0149 36.326 19.5774 36.2638 18.2091C36.2015 16.8429 35.9848 15.9095 35.6673 15.0942C35.3386 14.2504 34.8998 13.5352 34.1863 12.821C33.4727 12.1067 32.7559 11.6684 31.9127 11.3408C31.0954 11.0235 30.1618 10.8059 28.7959 10.7447C27.4268 10.6825 26.9891 10.667 23.502 10.667C20.0149 10.667 19.5769 10.6815 18.2071 10.7447Z" fill="url(#paint1_radial_62_260)"/>
<defs>
<radialGradient id="paint0_radial_62_260" cx="0" cy="0" r="1" gradientUnits="userSpaceOnUse" gradientTransform="translate(14.0723 36.454) scale(33.5245 33.5044)">
<stop offset="0.09" stop-color="#FA8F21"/>
<stop offset="0.78" stop-color="#D82D7E"/>
</radialGradient>
<radialGradient id="paint1_radial_62_260" cx="0" cy="0" r="1" gradientUnits="userSpaceOnUse" gradientTransform="translate(26.2349 37.6038) scale(26.422 26.4061)">
<stop offset="0.64" stop-color="#8C3AAA" stop-opacity="0"/>
<stop offset="1" stop-color="#8C3AAA"/>
</radialGradient>
</defs>
</svg>
