<svg width="46" height="47" viewBox="0 0 46 47" fill="none" xmlns="http://www.w3.org/2000/svg">
<path fill-rule="evenodd" clip-rule="evenodd" d="M27.9076 20.239C29.4482 21.3581 31.2932 21.956 33.1835 21.9487V18.1211C32.8119 18.1221 32.4413 18.0815 32.0783 17.9998V21.0492C30.1838 21.0526 28.3361 20.4479 26.7962 19.3204V27.1926C26.7915 28.4843 26.4448 29.7507 25.7928 30.8575C25.1408 31.9642 24.2078 32.8701 23.0928 33.4789C21.9778 34.0878 20.7223 34.377 19.4594 34.3159C18.1965 34.2548 16.9734 33.8456 15.9197 33.1318C16.8943 34.1394 18.1397 34.8288 19.4981 35.1128C20.8565 35.3967 22.2668 35.2624 23.5505 34.7269C24.8341 34.1913 25.9333 33.2786 26.709 32.1043C27.4846 30.9301 27.9017 29.547 27.9076 28.1304V20.239ZM29.2749 16.3348C28.4915 15.4672 28.0107 14.3592 27.9076 13.1834V12.6858H26.8586C26.9883 13.4332 27.2704 14.1443 27.6867 14.773C28.103 15.4017 28.6442 15.9338 29.2749 16.3348ZM18.3485 30.1016C17.9849 29.6159 17.7621 29.0356 17.7054 28.4268C17.6488 27.8181 17.7605 27.2053 18.0279 26.6582C18.2953 26.1111 18.7076 25.6517 19.2179 25.3323C19.7283 25.0129 20.3162 24.8462 20.9146 24.8513C21.245 24.8512 21.5735 24.9029 21.8886 25.0045V21.0492C21.5203 20.9994 21.1488 20.978 20.7773 20.9854V24.0603C20.01 23.8125 19.1795 23.8688 18.4511 24.2181C17.7226 24.5674 17.1495 25.1841 16.8458 25.9455C16.5421 26.7069 16.5299 27.5571 16.8118 28.3272C17.0937 29.0973 17.649 29.7308 18.3672 30.1016H18.3485Z" fill="#EE1D52"/>
<path fill-rule="evenodd" clip-rule="evenodd" d="M26.7956 19.2949C28.3356 20.4224 30.1833 21.0271 32.0778 21.0237V17.9743C30.9984 17.7411 30.0178 17.1677 29.2744 16.3348C28.6436 15.9338 28.1025 15.4017 27.6862 14.773C27.2699 14.1443 26.9877 13.4332 26.858 12.6858H24.0983V28.1304C24.0958 28.814 23.8837 29.4796 23.492 30.0339C23.1003 30.5881 22.5485 31.003 21.9142 31.2205C21.2798 31.4379 20.5948 31.4469 19.9552 31.2463C19.3155 31.0456 18.7535 30.6453 18.3479 30.1016C17.7051 29.7702 17.1904 29.2273 16.8867 28.5603C16.583 27.8934 16.5081 27.1413 16.674 26.4255C16.84 25.7097 17.2371 25.0719 17.8013 24.615C18.3656 24.1581 19.064 23.9088 19.784 23.9072C20.1143 23.9083 20.4426 23.9599 20.758 24.0603V20.9854C19.3953 21.0188 18.0719 21.458 16.9501 22.2491C15.8284 23.0402 14.9571 24.1487 14.4432 25.4386C13.9294 26.7285 13.7953 28.1436 14.0575 29.5103C14.3196 30.8769 14.9667 32.1356 15.9191 33.1318C16.973 33.8508 18.1981 34.2642 19.4638 34.3279C20.7295 34.3917 21.9885 34.1035 23.1065 33.4941C24.2246 32.8846 25.1599 31.9766 25.8129 30.8669C26.4658 29.7572 26.8119 28.4874 26.8143 27.1926L26.7956 19.2949Z" fill="black"/>
<path fill-rule="evenodd" clip-rule="evenodd" d="M32.078 17.9741V17.1512C31.0868 17.1555 30.1147 16.8724 29.2746 16.3346C30.0162 17.1699 30.9976 17.7438 32.078 17.9741ZM26.8583 12.6856C26.8583 12.5389 26.8146 12.3858 26.7959 12.239V11.7415H22.9872V27.1924C22.9839 28.0576 22.6448 28.886 22.0443 29.496C21.4438 30.106 20.631 30.4476 19.7842 30.4459C19.2856 30.4485 18.7935 30.3304 18.3482 30.1014C18.7538 30.6451 19.3158 31.0454 19.9554 31.2461C20.595 31.4468 21.2801 31.4377 21.9144 31.2203C22.5488 31.0028 23.1005 30.5879 23.4923 30.0337C23.884 29.4795 24.096 28.8138 24.0986 28.1302V12.6856H26.8583ZM20.7582 20.9789V20.1049C19.191 19.8873 17.5979 20.2186 16.2385 21.0446C14.8791 21.8706 13.8336 23.1427 13.2723 24.6536C12.7111 26.1644 12.6673 27.825 13.148 29.3645C13.6287 30.9041 14.6055 32.232 15.9194 33.1316C14.9741 32.1331 14.334 30.8749 14.0772 29.5108C13.8204 28.1466 13.9579 26.7356 14.4732 25.45C14.9884 24.1644 15.8589 23.06 16.9783 22.2717C18.0978 21.4833 19.4178 21.0452 20.777 21.0108L20.7582 20.9789Z" fill="#69C9D0"/>
</svg>
