<svg width="46" height="47" viewBox="0 0 46 47" fill="none" xmlns="http://www.w3.org/2000/svg">
<path fill-rule="evenodd" clip-rule="evenodd" d="M27.9076 20.2393C29.4482 21.3583 31.2932 21.9562 33.1835 21.949V18.1213C32.8119 18.1224 32.4413 18.0817 32.0783 18.0001V21.0495C30.1838 21.0529 28.3361 20.4481 26.7962 19.3206V27.1928C26.7915 28.4846 26.4448 29.751 25.7928 30.8577C25.1408 31.9645 24.2078 32.8703 23.0928 33.4792C21.9778 34.0881 20.7223 34.3773 19.4594 34.3162C18.1965 34.2551 16.9734 33.8459 15.9197 33.1321C16.8943 34.1397 18.1397 34.8291 19.4981 35.113C20.8565 35.397 22.2668 35.2627 23.5505 34.7271C24.8341 34.1916 25.9333 33.2789 26.709 32.1046C27.4846 30.9303 27.9017 29.5473 27.9076 28.1306V20.2393ZM29.2749 16.3351C28.4915 15.4674 28.0107 14.3594 27.9076 13.1836V12.686H26.8586C26.9883 13.4334 27.2704 14.1446 27.6867 14.7733C28.103 15.4019 28.6442 15.9341 29.2749 16.3351ZM18.3485 30.1019C17.9849 29.6161 17.7621 29.0358 17.7054 28.4271C17.6488 27.8183 17.7605 27.2055 18.0279 26.6584C18.2953 26.1114 18.7076 25.652 19.2179 25.3325C19.7283 25.0131 20.3162 24.8465 20.9146 24.8516C21.245 24.8515 21.5735 24.9031 21.8886 25.0047V21.0495C21.5203 20.9996 21.1488 20.9783 20.7773 20.9857V24.0605C20.01 23.8127 19.1795 23.8691 18.4511 24.2184C17.7226 24.5677 17.1495 25.1844 16.8458 25.9457C16.5421 26.7071 16.5299 27.5574 16.8118 28.3275C17.0937 29.0976 17.649 29.731 18.3672 30.1019H18.3485Z" fill="#EE1D52"/>
<path fill-rule="evenodd" clip-rule="evenodd" d="M26.7956 19.2951C28.3356 20.4226 30.1833 21.0274 32.0778 21.0239V17.9746C30.9984 17.7414 30.0178 17.1679 29.2744 16.3351C28.6436 15.9341 28.1025 15.4019 27.6862 14.7733C27.2699 14.1446 26.9877 13.4334 26.858 12.686H24.0983V28.1306C24.0958 28.8142 23.8837 29.4799 23.492 30.0341C23.1003 30.5883 22.5485 31.0033 21.9142 31.2207C21.2798 31.4382 20.5948 31.4472 19.9552 31.2465C19.3155 31.0459 18.7535 30.6456 18.3479 30.1019C17.7051 29.7705 17.1904 29.2275 16.8867 28.5606C16.583 27.8936 16.5081 27.1416 16.674 26.4258C16.84 25.71 17.2371 25.0722 17.8013 24.6152C18.3656 24.1583 19.064 23.909 19.784 23.9074C20.1143 23.9085 20.4426 23.9601 20.758 24.0605V20.9857C19.3953 21.0191 18.0719 21.4583 16.9501 22.2494C15.8284 23.0404 14.9571 24.149 14.4432 25.4389C13.9294 26.7287 13.7953 28.1439 14.0575 29.5105C14.3196 30.8772 14.9667 32.1358 15.9191 33.1321C16.973 33.851 18.1981 34.2644 19.4638 34.3282C20.7295 34.392 21.9885 34.1038 23.1065 33.4943C24.2246 32.8848 25.1599 31.9769 25.8129 30.8672C26.4658 29.7575 26.8119 28.4876 26.8143 27.1928L26.7956 19.2951Z" fill="black"/>
<path fill-rule="evenodd" clip-rule="evenodd" d="M32.078 17.9743V17.1513C31.0868 17.1556 30.1147 16.8725 29.2746 16.3348C30.0162 17.17 30.9976 17.744 32.078 17.9743ZM26.8583 12.6857C26.8583 12.539 26.8146 12.3859 26.7959 12.2392V11.7416H22.9872V27.1925C22.9839 28.0577 22.6448 28.8862 22.0443 29.4961C21.4438 30.1061 20.631 30.4477 19.7842 30.446C19.2856 30.4486 18.7935 30.3305 18.3482 30.1015C18.7538 30.6453 19.3158 31.0455 19.9554 31.2462C20.595 31.4469 21.2801 31.4379 21.9144 31.2204C22.5488 31.003 23.1005 30.588 23.4923 30.0338C23.884 29.4796 24.096 28.8139 24.0986 28.1303V12.6857H26.8583ZM20.7582 20.979V20.105C19.191 19.8875 17.5979 20.2187 16.2385 21.0447C14.8791 21.8707 13.8336 23.1428 13.2723 24.6537C12.7111 26.1646 12.6673 27.8251 13.148 29.3647C13.6287 30.9042 14.6055 32.2321 15.9194 33.1318C14.9741 32.1332 14.334 30.875 14.0772 29.5109C13.8204 28.1467 13.9579 26.7357 14.4732 25.4501C14.9884 24.1645 15.8589 23.0601 16.9783 22.2718C18.0978 21.4834 19.4178 21.0453 20.777 21.0109L20.7582 20.979Z" fill="#69C9D0"/>
</svg>
