<svg width="34" height="34" viewBox="0 0 34 34" fill="none" xmlns="http://www.w3.org/2000/svg">
<g clip-path="url(#clip0_61_198)">
<path d="M16.9999 2.83337C9.17992 2.83337 2.83325 9.18004 2.83325 17C2.83325 24.82 9.17992 31.1667 16.9999 31.1667C24.8199 31.1667 31.1666 24.82 31.1666 17C31.1666 9.18004 24.8199 2.83337 16.9999 2.83337ZM18.4166 7.50837L20.3291 6.16254C22.9074 6.95587 25.1033 8.65587 26.5341 10.8942L25.9816 12.7925L24.0691 13.4442L18.4166 9.49171V7.50837ZM13.6708 6.16254L15.5833 7.50837V9.49171L9.93075 13.4442L8.01825 12.7925L7.46575 10.8942C8.89659 8.67004 11.0924 6.97004 13.6708 6.16254ZM10.0299 24.2392L8.41492 24.3809C6.70075 22.3975 5.66659 19.8192 5.66659 17C5.66659 16.83 5.68075 16.6742 5.69492 16.5042L7.11159 15.47L9.06659 16.15L11.1349 22.2984L10.0299 24.2392ZM20.5416 27.7525C19.4224 28.1209 18.2324 28.3334 16.9999 28.3334C15.7674 28.3334 14.5774 28.1209 13.4583 27.7525L12.4808 25.6417L13.3874 24.0834H20.6266L21.5333 25.6559L20.5416 27.7525ZM20.2158 21.25H13.7841L11.8716 15.555L16.9999 11.9567L22.1424 15.555L20.2158 21.25ZM25.5849 24.3809L23.9699 24.2392L22.8508 22.2984L24.9191 16.15L26.8883 15.4842L28.3049 16.5184C28.3191 16.6742 28.3333 16.83 28.3333 17C28.3333 19.8192 27.2991 22.3975 25.5849 24.3809Z" fill="#003566"/>
</g>
<defs>
<clipPath id="clip0_61_198">
<rect width="34" height="34" fill="white"/>
</clipPath>
</defs>
</svg>
