<svg width="36" height="37" viewBox="0 0 36 37" fill="none" xmlns="http://www.w3.org/2000/svg">
<path d="M18 0C8.064 0 0 8.288 0 18.5C0 28.712 8.064 37 18 37C27.936 37 36 28.712 36 18.5C36 8.288 27.936 0 18 0ZM18 5.55C20.988 5.55 23.4 8.029 23.4 11.1C23.4 14.171 20.988 16.65 18 16.65C15.012 16.65 12.6 14.171 12.6 11.1C12.6 8.029 15.012 5.55 18 5.55ZM18 31.82C13.5 31.82 9.522 29.452 7.2 25.863C7.254 22.1815 14.4 20.165 18 20.165C21.582 20.165 28.746 22.1815 28.8 25.863C26.478 29.452 22.5 31.82 18 31.82Z" fill="#FFC300"/>
</svg>
