<svg width="37" height="37" viewBox="0 0 37 37" fill="none" xmlns="http://www.w3.org/2000/svg">
<g clip-path="url(#clip0_56_472)">
<path d="M23.8959 21.5833H22.678L22.2463 21.1671C24.0963 19.0087 25.0521 16.0642 24.528 12.9346C23.8034 8.64874 20.2267 5.22624 15.91 4.70207C9.38879 3.9004 3.91588 9.38874 4.70213 15.91C5.22629 20.2267 8.64879 23.8033 12.9346 24.5279C16.0642 25.0521 19.0088 24.0962 21.1671 22.2462L21.5834 22.6779V23.8958L28.1509 30.4479C28.783 31.08 29.8005 31.08 30.4325 30.4479L30.448 30.4325C31.08 29.8004 31.08 28.7829 30.448 28.1508L23.8959 21.5833ZM14.6459 21.5833C10.8071 21.5833 7.70838 18.4846 7.70838 14.6458C7.70838 10.8071 10.8071 7.70832 14.6459 7.70832C18.4846 7.70832 21.5834 10.8071 21.5834 14.6458C21.5834 18.4846 18.4846 21.5833 14.6459 21.5833ZM14.6459 10.7917C14.2142 10.7917 13.875 11.1308 13.875 11.5625V13.875H11.5625C11.1309 13.875 10.7917 14.2142 10.7917 14.6458C10.7917 15.0775 11.1309 15.4167 11.5625 15.4167H13.875V17.7292C13.875 18.1608 14.2142 18.5 14.6459 18.5C15.0775 18.5 15.4167 18.1608 15.4167 17.7292V15.4167H17.7292C18.1609 15.4167 18.5 15.0775 18.5 14.6458C18.5 14.2142 18.1609 13.875 17.7292 13.875H15.4167V11.5625C15.4167 11.1308 15.0775 10.7917 14.6459 10.7917Z" fill="#FFC300"/>
</g>
<defs>
<clipPath id="clip0_56_472">
<rect width="37" height="37" fill="white"/>
</clipPath>
</defs>
</svg>
